<svg xmlns="http://www.w3.org/2000/svg" width="1000" height="466" viewBox="0 0 1000 466" role="img" aria-labelledby="title desc">
<title id="title">ClimateLog LK report overview</title>
<desc id="desc">Report 2026-09-17. 60 stations. Highest rainfall 117.4 millimetres at Benthotawatta. Highest maximum 35.8 degrees Celsius at Trincomalee. Lowest minimum 15.5 degrees Celsius at Nuwara Eliya.</desc>
<rect width="1000" height="466" rx="20" fill="#0d1723"/>
<g font-family="Segoe UI,DejaVu Sans,sans-serif">
<text x="28" y="40" font-size="18" font-weight="700" fill="#e6edf3">DAILY OBSERVATION BOARD</text>
<text x="972" y="40" text-anchor="end" font-size="15" fill="#aebfd0">2026-09-17 · 08:30 SLST</text>
<rect x="24" y="64" width="464" height="168" rx="12" fill="#142437" stroke="#283d53"/>
<rect x="24" y="88" width="4" height="120" rx="2" fill="#b9adff"/>
<text x="48" y="98" font-size="14" letter-spacing="1.3" fill="#b9adff">STATION READINGS</text>
<text x="48" y="166" font-size="58" font-weight="700" fill="#f4f8fc">60</text>
<text x="50" y="203" font-size="17" fill="#bbccdc">in the published report</text>
<line x1="434" x2="454" y1="121" y2="121" stroke="#33516c" stroke-width="2"/>
<line x1="434" x2="454" y1="135" y2="135" stroke="#33516c" stroke-width="2"/>
<line x1="434" x2="454" y1="149" y2="149" stroke="#33516c" stroke-width="2"/>
<line x1="434" x2="454" y1="163" y2="163" stroke="#33516c" stroke-width="2"/>
<line x1="434" x2="454" y1="177" y2="177" stroke="#33516c" stroke-width="2"/>
<rect x="512" y="64" width="464" height="168" rx="12" fill="#142437" stroke="#283d53"/>
<rect x="512" y="88" width="4" height="120" rx="2" fill="#50dec0"/>
<text x="536" y="98" font-size="14" letter-spacing="1.3" fill="#50dec0">HIGHEST RAINFALL</text>
<text x="536" y="166" font-size="58" font-weight="700" fill="#f4f8fc">117.4</text>
<text x="538" y="203" font-size="17" fill="#bbccdc">mm / Benthotawatta</text>
<line x1="922" x2="942" y1="121" y2="121" stroke="#33516c" stroke-width="2"/>
<line x1="922" x2="942" y1="135" y2="135" stroke="#33516c" stroke-width="2"/>
<line x1="922" x2="942" y1="149" y2="149" stroke="#33516c" stroke-width="2"/>
<line x1="922" x2="942" y1="163" y2="163" stroke="#33516c" stroke-width="2"/>
<line x1="922" x2="942" y1="177" y2="177" stroke="#33516c" stroke-width="2"/>
<rect x="24" y="252" width="464" height="168" rx="12" fill="#142437" stroke="#283d53"/>
<rect x="24" y="276" width="4" height="120" rx="2" fill="#ffc477"/>
<text x="48" y="286" font-size="14" letter-spacing="1.3" fill="#ffc477">HIGHEST MAXIMUM</text>
<text x="48" y="354" font-size="58" font-weight="700" fill="#f4f8fc">35.8</text>
<text x="50" y="391" font-size="17" fill="#bbccdc">°C / Trincomalee</text>
<line x1="434" x2="454" y1="309" y2="309" stroke="#33516c" stroke-width="2"/>
<line x1="434" x2="454" y1="323" y2="323" stroke="#33516c" stroke-width="2"/>
<line x1="434" x2="454" y1="337" y2="337" stroke="#33516c" stroke-width="2"/>
<line x1="434" x2="454" y1="351" y2="351" stroke="#33516c" stroke-width="2"/>
<line x1="434" x2="454" y1="365" y2="365" stroke="#33516c" stroke-width="2"/>
<rect x="512" y="252" width="464" height="168" rx="12" fill="#142437" stroke="#283d53"/>
<rect x="512" y="276" width="4" height="120" rx="2" fill="#84c2ff"/>
<text x="536" y="286" font-size="14" letter-spacing="1.3" fill="#84c2ff">LOWEST MINIMUM</text>
<text x="536" y="354" font-size="58" font-weight="700" fill="#f4f8fc">15.5</text>
<text x="538" y="391" font-size="17" fill="#bbccdc">°C / Nuwara Eliya</text>
<line x1="922" x2="942" y1="309" y2="309" stroke="#33516c" stroke-width="2"/>
<line x1="922" x2="942" y1="323" y2="323" stroke="#33516c" stroke-width="2"/>
<line x1="922" x2="942" y1="337" y2="337" stroke="#33516c" stroke-width="2"/>
<line x1="922" x2="942" y1="351" y2="351" stroke="#33516c" stroke-width="2"/>
<line x1="922" x2="942" y1="365" y2="365" stroke="#33516c" stroke-width="2"/>
</g></svg>
